<?xml version="1.0" standalone="no"?>
<!DOCTYPE svg PUBLIC "-//W3C//DTD SVG 20010904//EN"
 "http://www.w3.org/TR/2001/REC-SVG-20010904/DTD/svg10.dtd">
<svg version="1.0" xmlns="http://www.w3.org/2000/svg"
 width="640.000000pt" height="1280.000000pt" viewBox="0 0 640.000000 1280.000000"
 preserveAspectRatio="xMidYMid meet">
<metadata>
Created by potrace 1.15, written by Peter Selinger 2001-2017
</metadata>
<g transform="translate(0.000000,1280.000000) scale(0.100000,-0.100000)"
fill="#000000" stroke="none">
<path d="M4494 12765 c-32 -78 -131 -425 -265 -930 -12 -44 -30 -111 -40 -150
-11 -38 -51 -189 -89 -335 -66 -250 -123 -464 -211 -785 -167 -614 -202 -792
-229 -1143 -5 -74 -20 -176 -32 -228 -20 -82 -26 -95 -49 -104 -36 -15 -78
-61 -87 -95 -7 -24 -17 -30 -87 -51 -240 -69 -1242 -503 -2160 -934 -427 -200
-605 -295 -605 -321 0 -40 321 61 1130 354 554 201 718 255 985 322 116 30
233 61 260 70 116 39 236 117 430 279 50 42 95 76 101 76 7 0 29 -17 51 -39
24 -23 54 -41 75 -45 22 -4 39 -15 46 -29 7 -15 12 -760 16 -2542 3 -1386 9
-3333 13 -4328 l6 -1807 175 0 175 0 -7 353 c-9 473 -23 1268 -36 1962 -6 314
-15 813 -20 1110 -5 297 -14 792 -20 1100 -6 308 -15 803 -20 1100 -5 297 -14
792 -20 1100 -6 308 -15 805 -21 1103 -6 299 -9 545 -7 547 2 2 64 -69 138
-158 678 -810 1626 -1887 1661 -1887 41 0 -10 74 -636 920 -200 270 -403 568
-705 1037 -130 201 -184 270 -258 328 -28 22 -51 43 -52 48 0 4 29 7 64 7 75
0 110 11 120 37 12 30 19 157 12 215 -7 52 -10 57 -44 72 -56 24 -278 83 -368
96 -120 18 -114 12 -93 100 17 74 102 458 139 635 10 50 33 155 50 235 30 142
52 245 90 425 10 50 32 153 49 230 29 136 73 345 106 510 9 44 43 211 76 370
132 641 216 1069 225 1152 8 63 -9 72 -32 18z"/>
</g>
</svg>
